<?xml version="1.0" encoding="UTF-8" standalone="no"?>
<svg
   width="256"
   height="256"
   fill="currentColor"
   class="bi bi-cloud-moon"
   viewBox="0 0 16.003544 14.999804"
   version="1.1"
   id="svg13647"
   sodipodi:docname="cloud-moon.svg"
   inkscape:version="1.2 (dc2aedaf03, 2022-05-15)"
   xmlns:inkscape="http://www.inkscape.org/namespaces/inkscape"
   xmlns:sodipodi="http://sodipodi.sourceforge.net/DTD/sodipodi-0.dtd"
   xmlns="http://www.w3.org/2000/svg"
   xmlns:svg="http://www.w3.org/2000/svg">
  <defs
     id="defs13651" />
  <sodipodi:namedview
     id="namedview13649"
     pagecolor="#ffffff"
     bordercolor="#000000"
     borderopacity="0.25"
     inkscape:showpageshadow="2"
     inkscape:pageopacity="0.0"
     inkscape:pagecheckerboard="0"
     inkscape:deskcolor="#d1d1d1"
     showgrid="false"
     inkscape:zoom="3.0664062"
     inkscape:cx="73.049682"
     inkscape:cy="112.02038"
     inkscape:window-width="1920"
     inkscape:window-height="1001"
     inkscape:window-x="-9"
     inkscape:window-y="-9"
     inkscape:window-maximized="1"
     inkscape:current-layer="svg13647" />
  <path
     d="m 7.0022657,6.9998039 a 3.5,3.5 0 0 1 3.5000003,3.5550001 0.5,0.5 0 0 0 0.625,0.492 1.503,1.503 0 0 1 1.875,1.453 1.5,1.5 0 0 1 -1.5,1.5 H 3.0022657 a 2,2 0 1 1 0.1,-3.998 0.5,0.5 0 0 0 0.509,-0.3750001 3.502,3.502 0 0 1 3.391,-2.627 z m 4.4730003,3 a 4.5,4.5 0 0 0 -8.7200003,-0.99 3,3 0 0 0 0.247,5.9900001 h 8.5000003 a 2.5,2.5 0 0 0 0,-5.0000001 z"
     id="path13643"
     style="fill:#ffffff;fill-opacity:1" />
  <path
     d="m 11.288266,0.77780385 a 0.5,0.5 0 0 0 -0.565,-0.755 4.595,4.595 0 0 0 -3.1800003,5.00300005 5.46,5.46 0 0 1 1.055,0.209 3.603,3.603 0 0 1 1.234,-3.618 4.593,4.593 0 0 0 4.3100003,5.744 3.576,3.576 0 0 1 -2.241,0.634 c 0.162,0.317 0.295,0.652 0.394,1 a 4.59,4.59 0 0 0 3.624,-2.04 0.5,0.5 0 0 0 -0.565,-0.755 3.593,3.593 0 0 1 -4.065,-5.42200005 z"
     id="path13645"
     style="fill:#ffffff;fill-opacity:1" />
</svg>
