<?xml version="1.0" encoding="UTF-8" standalone="no"?>
<svg
   width="256"
   height="256"
   fill="currentColor"
   class="bi bi-cloud-fog2"
   viewBox="0 0 16.003429 9.997592"
   version="1.1"
   id="svg15405"
   sodipodi:docname="cloud-fog2.svg"
   inkscape:version="1.2 (dc2aedaf03, 2022-05-15)"
   xmlns:inkscape="http://www.inkscape.org/namespaces/inkscape"
   xmlns:sodipodi="http://sodipodi.sourceforge.net/DTD/sodipodi-0.dtd"
   xmlns="http://www.w3.org/2000/svg"
   xmlns:svg="http://www.w3.org/2000/svg">
  <defs
     id="defs15409" />
  <sodipodi:namedview
     id="namedview15407"
     pagecolor="#ffffff"
     bordercolor="#000000"
     borderopacity="0.25"
     inkscape:showpageshadow="2"
     inkscape:pageopacity="0.0"
     inkscape:pagecheckerboard="0"
     inkscape:deskcolor="#d1d1d1"
     showgrid="false"
     inkscape:zoom="3.0664062"
     inkscape:cx="73.049682"
     inkscape:cy="80.061146"
     inkscape:window-width="1920"
     inkscape:window-height="1001"
     inkscape:window-x="-9"
     inkscape:window-y="-9"
     inkscape:window-maximized="1"
     inkscape:current-layer="svg15405" />
  <path
     d="m 8.5,0.99759036 a 4.002,4.002 0 0 0 -3.8,2.74500004 0.5,0.5 0 1 1 -0.949,-0.313 5.002,5.002 0 0 1 9.654,0.595 3,3 0 0 1 -0.405,5.973 H 0.5 a 0.5,0.5 0 0 1 0,-1 H 13 a 2.0000001,2.0000001 0 0 0 10e-4,-4 h -0.026 a 0.5,0.5 0 0 1 -0.5,-0.445 A 4,4 0 0 0 8.5,0.99759036 Z M 0,5.4975904 a 0.5,0.5 0 0 1 0.5,-0.5 h 7 a 0.5,0.5 0 0 1 0,1 h -7 a 0.5,0.5 0 0 1 -0.5,-0.5 z m 0,2 a 0.5,0.5 0 0 1 0.5,-0.5 h 9 a 0.5,0.5 0 0 1 0,1 h -9 a 0.5,0.5 0 0 1 -0.5,-0.5 z"
     id="path15403"
     style="fill:#ffffff;fill-opacity:1" />
</svg>
