<?xml version="1.0" encoding="UTF-8" standalone="no"?>
<!-- Created with Inkscape (http://www.inkscape.org/) -->

<svg
   width="256"
   height="256"
   viewBox="0 0 67.733322 46.566673"
   version="1.1"
   id="svg5"
   xml:space="preserve"
   inkscape:version="1.2 (dc2aedaf03, 2022-05-15)"
   sodipodi:docname="drawing.svg"
   xmlns:inkscape="http://www.inkscape.org/namespaces/inkscape"
   xmlns:sodipodi="http://sodipodi.sourceforge.net/DTD/sodipodi-0.dtd"
   xmlns="http://www.w3.org/2000/svg"
   xmlns:svg="http://www.w3.org/2000/svg"><sodipodi:namedview
     id="namedview7"
     pagecolor="#ffffff"
     bordercolor="#000000"
     borderopacity="0.25"
     inkscape:showpageshadow="2"
     inkscape:pageopacity="0.0"
     inkscape:pagecheckerboard="0"
     inkscape:deskcolor="#d1d1d1"
     inkscape:document-units="mm"
     showgrid="false"
     inkscape:zoom="0.72515432"
     inkscape:cx="-99.28921"
     inkscape:cy="244.77548"
     inkscape:window-width="1920"
     inkscape:window-height="1001"
     inkscape:window-x="-9"
     inkscape:window-y="-9"
     inkscape:window-maximized="1"
     inkscape:current-layer="layer1" /><defs
     id="defs2" /><g
     inkscape:label="Layer 1"
     inkscape:groupmode="layer"
     id="layer1"
     transform="translate(-62.822525,-83.986938)"><path
       d="m 81.474595,89.668071 a 23.410333,23.410333 0 0 1 15.214597,-5.681133 c 11.387658,0 20.840698,8.466666 21.869398,19.384432 6.73946,0.9525 11.99726,6.59553 11.99726,13.52127 0,7.60307 -6.34153,13.66097 -14.02503,13.66097 H 78.828755 c -8.7757,0 -16.00623,-6.91727 -16.00623,-15.58713 0,-7.46338 5.3594,-13.64404 12.45447,-15.210376 0.60536,-3.653366 2.95486,-7.294033 6.1976,-10.088033 z m 2.76436,3.204633 c -3.20463,2.764367 -4.88103,6.096 -4.88103,8.703736 v 1.89653 l -1.88383,0.20743 c -5.91397,0.6477 -10.41824,5.50334 -10.41824,11.28608 0,6.2103 5.207,11.3538 11.7729,11.3538 h 37.702065 c 5.4737,0 9.7917,-4.28414 9.7917,-9.42764 0,-5.14774 -4.318,-9.43187 -9.7917,-9.43187 h -2.11667 v -2.11667 c 0.004,-9.397996 -7.86976,-17.123829 -17.724958,-17.123829 a 19.177,19.177 0 0 0 -12.450237,4.656667 z"
       id="path17"
       style="fill:#ffffff;stroke-width:4.23333" /></g></svg>
