<?xml version="1.0" encoding="UTF-8" standalone="no"?>
<svg
   width="256"
   height="256"
   fill="currentColor"
   class="bi bi-cloud-sun"
   viewBox="0 0 16.002266 15.000001"
   version="1.1"
   id="svg10925"
   sodipodi:docname="cloud-sun.svg"
   inkscape:version="1.2 (dc2aedaf03, 2022-05-15)"
   xmlns:inkscape="http://www.inkscape.org/namespaces/inkscape"
   xmlns:sodipodi="http://sodipodi.sourceforge.net/DTD/sodipodi-0.dtd"
   xmlns="http://www.w3.org/2000/svg"
   xmlns:svg="http://www.w3.org/2000/svg">
  <defs
     id="defs10929" />
  <sodipodi:namedview
     id="namedview10927"
     pagecolor="#ffffff"
     bordercolor="#000000"
     borderopacity="0.25"
     inkscape:showpageshadow="2"
     inkscape:pageopacity="0.0"
     inkscape:pagecheckerboard="0"
     inkscape:deskcolor="#d1d1d1"
     showgrid="false"
     inkscape:zoom="3.0664062"
     inkscape:cx="73.049682"
     inkscape:cy="112.02038"
     inkscape:window-width="1920"
     inkscape:window-height="1001"
     inkscape:window-x="-9"
     inkscape:window-y="-9"
     inkscape:window-maximized="1"
     inkscape:current-layer="svg10925" />
  <path
     d="m 7.0022657,7 a 3.5,3.5 0 0 1 3.5000003,3.555 0.5,0.5 0 0 0 0.624,0.492 1.503,1.503 0 0 1 1.876,1.453 1.5,1.5 0 0 1 -1.5,1.5 H 3.0022657 a 2,2 0 1 1 0.1,-3.998 0.5,0.5 0 0 0 0.51,-0.375 3.502,3.502 0 0 1 3.39,-2.627 z m 4.4730003,3 a 4.5,4.5 0 0 0 -8.7200003,-0.99 3,3 0 0 0 0.247,5.99 h 8.5000003 a 2.5,2.5 0 0 0 0,-5 z"
     id="path10921"
     style="fill:#ffffff;fill-opacity:1" />
  <path
     d="m 10.502266,0.5 a 0.5,0.5 0 0 0 -1.0000003,0 v 1 a 0.5,0.5 0 0 0 1.0000003,0 z m 3.743,1.964 a 0.5,0.5 0 1 0 -0.707,-0.707 l -0.708,0.707 a 0.5006316,0.5006316 0 0 0 0.708,0.708 z M 6.4662657,1.757 a 0.5,0.5 0 0 0 -0.707,0.707 l 0.707,0.708 a 0.5006316,0.5006316 0 1 0 0.708,-0.708 z m 1.734,3.374 a 2,2 0 1 1 3.2960003,2.198 c 0.199,0.281 0.372,0.582 0.516,0.898 A 3,3 0 1 0 7.1722657,5.002 c 0.352,0.011 0.696,0.055 1.028,0.129 z m 4.4840003,4.074 c 0.6,0.215 1.125,0.59 1.522,1.072 a 0.5,0.5 0 0 0 0.039,-0.742 l -0.707,-0.707 a 0.5,0.5 0 0 0 -0.854,0.377 z m 1.818,-3.705 a 0.5,0.5 0 0 0 0,1 h 1 a 0.5,0.5 0 0 0 0,-1 z"
     id="path10923"
     style="fill:#ffffff;fill-opacity:1" />
</svg>
