<?xml version="1.0" encoding="UTF-8" standalone="no"?>
<svg
   width="256"
   height="256"
   fill="currentColor"
   class="bi bi-clouds"
   viewBox="0 0 16.002266 11.998185"
   version="1.1"
   id="svg7584"
   sodipodi:docname="clouds.svg"
   inkscape:version="1.2 (dc2aedaf03, 2022-05-15)"
   xmlns:inkscape="http://www.inkscape.org/namespaces/inkscape"
   xmlns:sodipodi="http://sodipodi.sourceforge.net/DTD/sodipodi-0.dtd"
   xmlns="http://www.w3.org/2000/svg"
   xmlns:svg="http://www.w3.org/2000/svg">
  <defs
     id="defs7588" />
  <sodipodi:namedview
     id="namedview7586"
     pagecolor="#ffffff"
     bordercolor="#000000"
     borderopacity="0.25"
     inkscape:showpageshadow="2"
     inkscape:pageopacity="0.0"
     inkscape:pagecheckerboard="0"
     inkscape:deskcolor="#d1d1d1"
     showgrid="false"
     inkscape:zoom="3.0664062"
     inkscape:cx="73.049682"
     inkscape:cy="96.040764"
     inkscape:window-width="1920"
     inkscape:window-height="1001"
     inkscape:window-x="-9"
     inkscape:window-y="-9"
     inkscape:window-maximized="1"
     inkscape:current-layer="svg7584" />
  <path
     d="m 16.002266,5.4981847 a 2.5,2.5 0 0 1 -1.456,2.272 3.513,3.513 0 0 0 -0.65,-0.824 1.5007779,1.5007779 0 0 0 -0.789,-2.896 0.5,0.5 0 0 1 -0.627,-0.421 3,3 0 0 0 -5.2200003,-1.625 5.587,5.587 0 0 0 -1.276,0.088 4.002,4.002 0 0 1 7.3920003,0.91 2.5,2.5 0 0 1 2.626,2.496 z"
     id="path7580"
     style="fill:#ffffff;fill-opacity:1" />
  <path
     d="m 7.0022657,2.9981847 a 4.5,4.5 0 0 1 4.4730003,4 h 0.027 a 2.5,2.5 0 0 1 0,5.0000003 H 3.0022657 a 3,3 0 0 1 -0.247,-5.9900003 4.502,4.502 0 0 1 4.247,-3.01 z m 3.5000003,4.5 a 3.5,3.5 0 0 0 -6.8900003,-0.873 0.5,0.5 0 0 1 -0.51,0.375 2,2 0 1 0 -0.1,3.9980003 h 8.5000003 a 1.5,1.5 0 1 0 -0.376,-2.9530003 0.5,0.5 0 0 1 -0.624,-0.492 z"
     id="path7582"
     style="fill:#ffffff;fill-opacity:1" />
</svg>
