<?xml version="1.0" encoding="UTF-8" standalone="no"?>
<svg
   width="256"
   height="256"
   fill="currentColor"
   class="bi bi-moon"
   viewBox="0 0 14.999742 15.999332"
   version="1.1"
   id="svg10051"
   sodipodi:docname="moon.svg"
   inkscape:version="1.2 (dc2aedaf03, 2022-05-15)"
   xmlns:inkscape="http://www.inkscape.org/namespaces/inkscape"
   xmlns:sodipodi="http://sodipodi.sourceforge.net/DTD/sodipodi-0.dtd"
   xmlns="http://www.w3.org/2000/svg"
   xmlns:svg="http://www.w3.org/2000/svg">
  <defs
     id="defs10055" />
  <sodipodi:namedview
     id="namedview10053"
     pagecolor="#ffffff"
     bordercolor="#000000"
     borderopacity="0.25"
     inkscape:showpageshadow="2"
     inkscape:pageopacity="0.0"
     inkscape:pagecheckerboard="0"
     inkscape:deskcolor="#d1d1d1"
     showgrid="false"
     inkscape:zoom="3.0664062"
     inkscape:cx="73.049682"
     inkscape:cy="128"
     inkscape:window-width="1920"
     inkscape:window-height="1001"
     inkscape:window-x="-9"
     inkscape:window-y="-9"
     inkscape:window-maximized="1"
     inkscape:current-layer="svg10051" />
  <path
     d="m 6,0.2773216 a 0.768,0.768 0 0 1 0.08,0.858 7.208,7.208 0 0 0 -0.878,3.46 c 0,4.021 3.278,7.2770004 7.318,7.2770004 0.527,0 1.04,-0.055 1.533,-0.16 a 0.787,0.787 0 0 1 0.81,0.316 0.733,0.733 0 0 1 -0.031,0.893 8.349,8.349 0 0 1 -6.488,3.078 c -4.61,0 -8.344,-3.714 -8.344,-8.2900004 0,-3.444 2.114,-6.398 5.124,-7.65 a 0.752,0.752 0 0 1 0.876,0.218 z m -1.142,1.033 a 7.269,7.269 0 0 0 -3.833,6.399 c 0,4.0200004 3.279,7.2760004 7.319,7.2760004 a 7.316,7.316 0 0 0 5.205,-2.162 c -0.337,0.042 -0.68,0.063 -1.029,0.063 -4.61,0 -8.343,-3.7140004 -8.343,-8.2900004 0,-1.167 0.242,-2.278 0.681,-3.286 z"
     id="path10049"
     style="fill:#ffffff;fill-opacity:1" />
</svg>
