<?xml version="1.0" encoding="UTF-8" standalone="no"?>
<svg
   width="256"
   height="256"
   fill="currentColor"
   class="bi bi-snow"
   viewBox="0 0 13.991 16"
   version="1.1"
   id="svg9181"
   sodipodi:docname="snow.svg"
   inkscape:version="1.2 (dc2aedaf03, 2022-05-15)"
   xmlns:inkscape="http://www.inkscape.org/namespaces/inkscape"
   xmlns:sodipodi="http://sodipodi.sourceforge.net/DTD/sodipodi-0.dtd"
   xmlns="http://www.w3.org/2000/svg"
   xmlns:svg="http://www.w3.org/2000/svg">
  <defs
     id="defs9185" />
  <sodipodi:namedview
     id="namedview9183"
     pagecolor="#ffffff"
     bordercolor="#000000"
     borderopacity="0.25"
     inkscape:showpageshadow="2"
     inkscape:pageopacity="0.0"
     inkscape:pagecheckerboard="0"
     inkscape:deskcolor="#d1d1d1"
     showgrid="false"
     inkscape:zoom="3.0664062"
     inkscape:cx="57.070064"
     inkscape:cy="128"
     inkscape:window-width="1920"
     inkscape:window-height="1001"
     inkscape:window-x="-9"
     inkscape:window-y="-9"
     inkscape:window-maximized="1"
     inkscape:current-layer="svg9181" />
  <path
     d="m 6.9978723,16 a 0.5,0.5 0 0 1 -0.5,-0.5 v -1.293 l -0.646,0.647 a 0.50027817,0.50027817 0 0 1 -0.707,-0.708 l 1.353,-1.353 V 8.866 l -3.4,1.963 -0.496,1.85 a 0.50018896,0.50018896 0 1 1 -0.966,-0.26 l 0.237,-0.882 -1.12000004,0.646 a 0.5,0.5 0 0 1 -0.5,-0.866 L 1.3728723,10.671 0.48887226,10.434 a 0.50018896,0.50018896 0 1 1 0.26,-0.966 l 1.84800004,0.495 3.401,-1.963 -3.4,-1.963 -1.85000004,0.495 a 0.5,0.5 0 0 1 -0.258,-0.966 L 1.3728723,5.329 0.25287226,4.683 a 0.5,0.5 0 1 1 0.5,-0.866 l 1.12000004,0.646 -0.237,-0.883 a 0.5,0.5 0 1 1 0.966,-0.258 l 0.495,1.849 3.401,1.963 V 3.207 l -1.353,-1.353 a 0.50027817,0.50027817 0 1 1 0.707,-0.708 l 0.646,0.647 V 0.5 a 0.5,0.5 0 1 1 1,0 v 1.293 l 0.647,-0.647 a 0.50027817,0.50027817 0 1 1 0.707,0.708 l -1.354,1.353 v 3.927 l 3.3999997,-1.963 0.496,-1.85 a 0.50018896,0.50018896 0 1 1 0.966,0.26 l -0.236,0.882 1.12,-0.646 a 0.5,0.5 0 0 1 0.5,0.866 l -1.12,0.646 0.883,0.237 a 0.50018896,0.50018896 0 1 1 -0.26,0.966 L 11.398872,6.037 7.9978723,8 l 3.3999997,1.963 1.849,-0.495 a 0.50005925,0.50005925 0 0 1 0.259,0.966 l -0.883,0.237 1.12,0.646 a 0.5,0.5 0 0 1 -0.5,0.866 l -1.12,-0.646 0.236,0.883 a 0.5,0.5 0 1 1 -0.966,0.258 l -0.495,-1.849 -3.3999997,-1.963 v 3.927 l 1.353,1.353 a 0.50027817,0.50027817 0 0 1 -0.707,0.708 l -0.647,-0.647 V 15.5 a 0.5,0.5 0 0 1 -0.5,0.5 z"
     id="path9179"
     style="fill:#ffffff;fill-opacity:1" />
</svg>
